<?xml version="1.0" encoding="utf-8"?>
<!-- Generator: Adobe Illustrator 22.0.0, SVG Export Plug-In . SVG Version: 6.00 Build 0)  -->
<svg version="1.1" id="Layer_1" xmlns="http://www.w3.org/2000/svg" xmlns:xlink="http://www.w3.org/1999/xlink" x="0px" y="0px"
	 viewBox="0 0 44.9 44.4" style="enable-background:new 0 0 44.9 44.4;" xml:space="preserve">
<style type="text/css">
	.st0{fill:#F2F2F2;}
</style>
<g>
	<path class="st0" d="M32.2,19.6c0.5-1,0.7-1.9,0.7-2.9c0-2.1-0.6-3.5-1.5-4.4c-1.5-1.6-3.5-1.8-5.2-1.8h-9.1V34H27
		c2.9,0,5.1-0.9,6.4-2.2c0.9-0.9,1.7-2.4,1.7-4.6c0-1.9-0.6-3.4-1.6-4.3c-0.7-0.7-2-1.3-3.2-1.4C31.2,21,31.7,20.5,32.2,19.6z
		 M23.3,15.1h1.1c1.2,0,1.9,0.3,2.3,0.7c0.4,0.4,0.6,1,0.6,1.6c0,0.5-0.2,1.2-0.6,1.6c-0.6,0.7-1.7,0.7-2.3,0.7h-1.1V15.1z
		 M28.5,28.3c-0.7,0.8-2.1,1-3.8,1h-1.4v-5h1.3c1.5,0,3,0,3.8,0.8c0.4,0.4,0.6,1,0.6,1.7C29,27.4,28.7,28,28.5,28.3z"/>
	<polygon class="st0" points="0,0 0,6.1 38.8,6.1 38.8,38.3 6.1,38.3 6.1,34 6.1,29.9 6.1,24.7 12.8,24.7 12.8,19.5 6.1,19.5 
		6.1,15.6 13.5,15.6 13.5,10.4 0,10.4 0,29.9 0,34 0,38.3 0,38.9 0,44.4 38.8,44.4 44.9,44.4 44.9,38.3 44.9,6.1 44.9,1.1 44.9,0 	
		"/>
</g>
</svg>
